<svg width="26" height="25" viewBox="0 0 26 25" fill="none" xmlns="http://www.w3.org/2000/svg">
<path d="M16.5125 12.85C17.3037 12.0003 17.7495 10.886 17.7625 9.725C17.7625 8.47185 17.2647 7.27003 16.3786 6.38392C15.4925 5.49781 14.2906 5 13.0375 5C11.7844 5 10.5825 5.49781 9.69642 6.38392C8.81031 7.27003 8.3125 8.47185 8.3125 9.725C8.32554 10.886 8.77128 12.0003 9.5625 12.85C8.46082 13.3986 7.51278 14.2124 6.80364 15.2183C6.09451 16.2242 5.64653 17.3905 5.5 18.6125C5.46353 18.944 5.56025 19.2765 5.76889 19.5367C5.97752 19.7969 6.28098 19.9635 6.6125 20C6.94402 20.0365 7.27645 19.9397 7.53666 19.7311C7.79686 19.5225 7.96353 19.219 8 18.8875C8.14917 17.6764 8.73606 16.5617 9.65011 15.7533C10.5642 14.9449 11.7423 14.4987 12.9625 14.4987C14.1827 14.4987 15.3608 14.9449 16.2749 15.7533C17.1889 16.5617 17.7758 17.6764 17.925 18.8875C17.9598 19.208 18.117 19.5027 18.3639 19.71C18.6108 19.9173 18.9283 20.0212 19.25 20H19.3875C19.7152 19.9623 20.0147 19.7966 20.2207 19.5391C20.4267 19.2815 20.5226 18.953 20.4875 18.625C20.3518 17.4095 19.918 16.2463 19.2245 15.2388C18.5311 14.2313 17.5995 13.4107 16.5125 12.85V12.85ZM13 11.95C12.5599 11.95 12.1298 11.8195 11.7639 11.575C11.398 11.3305 11.1128 10.983 10.9444 10.5765C10.776 10.1699 10.7319 9.72253 10.8178 9.29092C10.9036 8.85932 11.1155 8.46286 11.4267 8.15169C11.7379 7.84052 12.1343 7.62861 12.5659 7.54275C12.9975 7.4569 13.4449 7.50096 13.8515 7.66937C14.258 7.83777 14.6055 8.12296 14.85 8.48886C15.0945 8.85476 15.225 9.28494 15.225 9.725C15.225 10.3151 14.9906 10.881 14.5733 11.2983C14.156 11.7156 13.5901 11.95 13 11.95V11.95ZM21.75 0H4.25C3.25544 0 2.30161 0.395088 1.59835 1.09835C0.895088 1.80161 0.5 2.75544 0.5 3.75V21.25C0.5 22.2446 0.895088 23.1984 1.59835 23.9017C2.30161 24.6049 3.25544 25 4.25 25H21.75C22.7446 25 23.6984 24.6049 24.4017 23.9017C25.1049 23.1984 25.5 22.2446 25.5 21.25V3.75C25.5 2.75544 25.1049 1.80161 24.4017 1.09835C23.6984 0.395088 22.7446 0 21.75 0ZM23 21.25C23 21.5815 22.8683 21.8995 22.6339 22.1339C22.3995 22.3683 22.0815 22.5 21.75 22.5H4.25C3.91848 22.5 3.60054 22.3683 3.36612 22.1339C3.1317 21.8995 3 21.5815 3 21.25V3.75C3 3.41848 3.1317 3.10054 3.36612 2.86612C3.60054 2.6317 3.91848 2.5 4.25 2.5H21.75C22.0815 2.5 22.3995 2.6317 22.6339 2.86612C22.8683 3.10054 23 3.41848 23 3.75V21.25Z" fill="black"/>
</svg>
