<svg width="28" height="23" viewBox="0 0 28 23" fill="none" xmlns="http://www.w3.org/2000/svg">
<path d="M14.375 11.775C15.042 11.1977 15.5769 10.4836 15.9436 9.68128C16.3102 8.87895 16.5 8.00714 16.5 7.125C16.5 5.4674 15.8415 3.87769 14.6694 2.70558C13.4973 1.53348 11.9076 0.875 10.25 0.875C8.5924 0.875 7.00269 1.53348 5.83058 2.70558C4.65848 3.87769 4 5.4674 4 7.125C3.99999 8.00714 4.18975 8.87895 4.55641 9.68128C4.92306 10.4836 5.45803 11.1977 6.125 11.775C4.37517 12.5674 2.89058 13.8469 1.84873 15.4607C0.806869 17.0744 0.25184 18.9541 0.25 20.875C0.25 21.2065 0.381696 21.5245 0.616116 21.7589C0.850537 21.9933 1.16848 22.125 1.5 22.125C1.83152 22.125 2.14946 21.9933 2.38388 21.7589C2.6183 21.5245 2.75 21.2065 2.75 20.875C2.75 18.8859 3.54018 16.9782 4.9467 15.5717C6.35322 14.1652 8.26088 13.375 10.25 13.375C12.2391 13.375 14.1468 14.1652 15.5533 15.5717C16.9598 16.9782 17.75 18.8859 17.75 20.875C17.75 21.2065 17.8817 21.5245 18.1161 21.7589C18.3505 21.9933 18.6685 22.125 19 22.125C19.3315 22.125 19.6495 21.9933 19.8839 21.7589C20.1183 21.5245 20.25 21.2065 20.25 20.875C20.2482 18.9541 19.6931 17.0744 18.6513 15.4607C17.6094 13.8469 16.1248 12.5674 14.375 11.775V11.775ZM10.25 10.875C9.50832 10.875 8.7833 10.6551 8.16661 10.243C7.54993 9.83095 7.06928 9.24528 6.78545 8.56006C6.50162 7.87484 6.42736 7.12084 6.57206 6.39341C6.71675 5.66598 7.0739 4.9978 7.59835 4.47335C8.1228 3.9489 8.79098 3.59175 9.51841 3.44706C10.2458 3.30236 10.9998 3.37662 11.6851 3.66045C12.3703 3.94428 12.956 4.42493 13.368 5.04161C13.7801 5.6583 14 6.38332 14 7.125C14 8.11956 13.6049 9.07339 12.9017 9.77665C12.1984 10.4799 11.2446 10.875 10.25 10.875ZM22.425 11.275C23.225 10.3742 23.7475 9.26132 23.9298 8.07042C24.112 6.87953 23.9462 5.66134 23.4522 4.5625C22.9583 3.46366 22.1572 2.53099 21.1456 1.87678C20.1339 1.22256 18.9548 0.874678 17.75 0.875C17.4185 0.875 17.1005 1.0067 16.8661 1.24112C16.6317 1.47554 16.5 1.79348 16.5 2.125C16.5 2.45652 16.6317 2.77446 16.8661 3.00888C17.1005 3.2433 17.4185 3.375 17.75 3.375C18.7446 3.375 19.6984 3.77009 20.4017 4.47335C21.1049 5.17661 21.5 6.13044 21.5 7.125C21.4982 7.78155 21.3241 8.42613 20.9951 8.99428C20.666 9.56242 20.1936 10.0342 19.625 10.3625C19.4397 10.4694 19.2849 10.6221 19.1755 10.8059C19.066 10.9898 19.0056 11.1986 19 11.4125C18.9948 11.6247 19.0437 11.8347 19.1421 12.0228C19.2405 12.2109 19.3852 12.3708 19.5625 12.4875L20.05 12.8125L20.2125 12.9C21.7192 13.6146 22.9904 14.745 23.8762 16.1579C24.7621 17.5708 25.2257 19.2074 25.2125 20.875C25.2125 21.2065 25.3442 21.5245 25.5786 21.7589C25.813 21.9933 26.131 22.125 26.4625 22.125C26.794 22.125 27.112 21.9933 27.3464 21.7589C27.5808 21.5245 27.7125 21.2065 27.7125 20.875C27.7227 18.9568 27.2423 17.0678 26.3168 15.3876C25.3914 13.7073 24.0517 12.2916 22.425 11.275V11.275Z" fill="black"/>
</svg>
